solid thicknesses
facet normal -1.0 0.0 0.0
  outer loop
    vertex 0.0 -4.999999999999999 0.9999999999999999
    vertex 0.0 -10.0 0.0
    vertex 0.0 -10.0 0.9999999999999999
  endloop
endfacet
facet normal -1.0 0.0 0.0
  outer loop
    vertex 0.0 -10.0 0.0
    vertex 0.0 -4.999999999999999 0.9999999999999999
    vertex 0.0 -4.999999999999999 0.0
  endloop
endfacet
facet normal 1.0 0.0 0.0
  outer loop
    vertex 5.0 -4.999999999999999 0.0
    vertex 5.0 -10.0 0.9999999999999999
    vertex 5.0 -10.0 0.0
  endloop
endfacet
facet normal 1.0 0.0 0.0
  outer loop
    vertex 5.0 -10.0 0.9999999999999999
    vertex 5.0 -4.999999999999999 0.0
    vertex 5.0 -4.999999999999999 0.9999999999999999
  endloop
endfacet
facet normal -0.0 -1.0 -0.0
  outer loop
    vertex 5.0 -10.0 0.9999999999999999
    vertex 0.0 -10.0 0.0
    vertex 5.0 -10.0 0.0
  endloop
endfacet
facet normal -0.0 -1.0 -0.0
  outer loop
    vertex 0.0 -10.0 0.0
    vertex 5.0 -10.0 0.9999999999999999
    vertex 0.0 -10.0 0.9999999999999999
  endloop
endfacet
facet normal 0.0 1.0 0.0
  outer loop
    vertex 0.0 -4.999999999999999 0.9999999999999999
    vertex 5.0 -4.999999999999999 0.0
    vertex 0.0 -4.999999999999999 0.0
  endloop
endfacet
facet normal 0.0 1.0 0.0
  outer loop
    vertex 5.0 -4.999999999999999 0.0
    vertex 0.0 -4.999999999999999 0.9999999999999999
    vertex 5.0 -4.999999999999999 0.9999999999999999
  endloop
endfacet
facet normal 0.0 0.0 -1.0
  outer loop
    vertex 5.0 -4.999999999999999 0.0
    vertex 0.0 -10.0 0.0
    vertex 0.0 -4.999999999999999 0.0
  endloop
endfacet
facet normal 0.0 0.0 -1.0
  outer loop
    vertex 0.0 -10.0 0.0
    vertex 5.0 -4.999999999999999 0.0
    vertex 5.0 -10.0 0.0
  endloop
endfacet
facet normal 0.0 0.0 1.0
  outer loop
    vertex 5.0 -10.0 0.9999999999999999
    vertex 0.0 -4.999999999999999 0.9999999999999999
    vertex 0.0 -10.0 0.9999999999999999
  endloop
endfacet
facet normal 0.0 0.0 1.0
  outer loop
    vertex 0.0 -4.999999999999999 0.9999999999999999
    vertex 5.0 -10.0 0.9999999999999999
    vertex 5.0 -4.999999999999999 0.9999999999999999
  endloop
endfacet
facet normal -0.0 -1.0 -0.0
  outer loop
    vertex 5.0 0.0 0.75
    vertex 0.0 0.0 0.0
    vertex 5.0 0.0 0.0
  endloop
endfacet
facet normal -0.0 -1.0 -0.0
  outer loop
    vertex 0.0 0.0 0.0
    vertex 5.0 0.0 0.75
    vertex 0.0 0.0 0.75
  endloop
endfacet
facet normal 0.0 0.0 1.0
  outer loop
    vertex 5.0 0.0 0.75
    vertex 0.0 5.0 0.75
    vertex 0.0 0.0 0.75
  endloop
endfacet
facet normal 0.0 0.0 1.0
  outer loop
    vertex 0.0 5.0 0.75
    vertex 5.0 0.0 0.75
    vertex 5.0 5.0 0.75
  endloop
endfacet
facet normal 0.0 1.0 0.0
  outer loop
    vertex 0.0 5.0 0.75
    vertex 5.0 5.0 0.0
    vertex 0.0 5.0 0.0
  endloop
endfacet
facet normal 0.0 1.0 0.0
  outer loop
    vertex 5.0 5.0 0.0
    vertex 0.0 5.0 0.75
    vertex 5.0 5.0 0.75
  endloop
endfacet
facet normal 1.0 0.0 0.0
  outer loop
    vertex 5.0 5.0 0.0
    vertex 5.0 0.0 0.75
    vertex 5.0 0.0 0.0
  endloop
endfacet
facet normal 1.0 0.0 0.0
  outer loop
    vertex 5.0 0.0 0.75
    vertex 5.0 5.0 0.0
    vertex 5.0 5.0 0.75
  endloop
endfacet
facet normal 0.0 0.0 -1.0
  outer loop
    vertex 5.0 5.0 0.0
    vertex 0.0 0.0 0.0
    vertex 0.0 5.0 0.0
  endloop
endfacet
facet normal 0.0 0.0 -1.0
  outer loop
    vertex 0.0 0.0 0.0
    vertex 5.0 5.0 0.0
    vertex 5.0 0.0 0.0
  endloop
endfacet
facet normal -1.0 0.0 0.0
  outer loop
    vertex 0.0 5.0 0.75
    vertex 0.0 0.0 0.0
    vertex 0.0 0.0 0.75
  endloop
endfacet
facet normal -1.0 0.0 0.0
  outer loop
    vertex 0.0 0.0 0.0
    vertex 0.0 5.0 0.75
    vertex 0.0 5.0 0.0
  endloop
endfacet
facet normal 1.0 0.0 0.0
  outer loop
    vertex 5.0 15.0 0.0
    vertex 5.0 10.0 0.49999999999999994
    vertex 5.0 10.0 0.0
  endloop
endfacet
facet normal 1.0 0.0 0.0
  outer loop
    vertex 5.0 10.0 0.49999999999999994
    vertex 5.0 15.0 0.0
    vertex 5.0 15.0 0.49999999999999994
  endloop
endfacet
facet normal 0.0 0.0 1.0
  outer loop
    vertex 5.0 10.0 0.49999999999999994
    vertex 0.0 15.0 0.49999999999999994
    vertex 0.0 10.0 0.49999999999999994
  endloop
endfacet
facet normal 0.0 0.0 1.0
  outer loop
    vertex 0.0 15.0 0.49999999999999994
    vertex 5.0 10.0 0.49999999999999994
    vertex 5.0 15.0 0.49999999999999994
  endloop
endfacet
facet normal -1.0 0.0 0.0
  outer loop
    vertex 0.0 15.0 0.49999999999999994
    vertex 0.0 10.0 0.0
    vertex 0.0 10.0 0.49999999999999994
  endloop
endfacet
facet normal -1.0 0.0 0.0
  outer loop
    vertex 0.0 10.0 0.0
    vertex 0.0 15.0 0.49999999999999994
    vertex 0.0 15.0 0.0
  endloop
endfacet
facet normal 0.0 1.0 0.0
  outer loop
    vertex 0.0 15.0 0.49999999999999994
    vertex 5.0 15.0 0.0
    vertex 0.0 15.0 0.0
  endloop
endfacet
facet normal 0.0 1.0 0.0
  outer loop
    vertex 5.0 15.0 0.0
    vertex 0.0 15.0 0.49999999999999994
    vertex 5.0 15.0 0.49999999999999994
  endloop
endfacet
facet normal -0.0 -1.0 -0.0
  outer loop
    vertex 5.0 10.0 0.49999999999999994
    vertex 0.0 10.0 0.0
    vertex 5.0 10.0 0.0
  endloop
endfacet
facet normal -0.0 -1.0 -0.0
  outer loop
    vertex 0.0 10.0 0.0
    vertex 5.0 10.0 0.49999999999999994
    vertex 0.0 10.0 0.49999999999999994
  endloop
endfacet
facet normal 0.0 0.0 -1.0
  outer loop
    vertex 5.0 15.0 0.0
    vertex 0.0 10.0 0.0
    vertex 0.0 15.0 0.0
  endloop
endfacet
facet normal 0.0 0.0 -1.0
  outer loop
    vertex 0.0 10.0 0.0
    vertex 5.0 15.0 0.0
    vertex 5.0 10.0 0.0
  endloop
endfacet
facet normal 0.0 -1.0 0.0
  outer loop
    vertex 12.305229641752545 0.0 -1.9962755723548895
    vertex 11.853081638689533 0.0 3.039403347445908
    vertex 11.556549770809722 0.0 -1.9517957921729177
  endloop
endfacet
facet normal 0.0 -1.0 0.0
  outer loop
    vertex 11.853081638689533 0.0 3.039403347445908
    vertex 12.305229641752545 0.0 -1.9962755723548895
    vertex 12.601761509632356 0.0 2.9949235672639367
  endloop
endfacet
facet normal 0.9982398279237652 0.0 -0.059306373575962086
  outer loop
    vertex 12.305229641752545 0.0 -1.9962755723548895
    vertex 12.601761509632356 5.0 2.9949235672639367
    vertex 12.601761509632356 0.0 2.9949235672639367
  endloop
endfacet
facet normal 0.9982398279237652 0.0 -0.059306373575962086
  outer loop
    vertex 12.601761509632356 5.0 2.9949235672639367
    vertex 12.305229641752545 0.0 -1.9962755723548895
    vertex 12.305229641752545 5.0 -1.9962755723548895
  endloop
endfacet
facet normal 0.0 1.0 0.0
  outer loop
    vertex 12.601761509632356 5.0 2.9949235672639367
    vertex 11.556549770809722 5.0 -1.9517957921729177
    vertex 11.853081638689533 5.0 3.039403347445908
  endloop
endfacet
facet normal 0.0 1.0 0.0
  outer loop
    vertex 11.556549770809722 5.0 -1.9517957921729177
    vertex 12.601761509632356 5.0 2.9949235672639367
    vertex 12.305229641752545 5.0 -1.9962755723548895
  endloop
endfacet
facet normal -0.0593063735759621 0.0 -0.9982398279237654
  outer loop
    vertex 11.556549770809722 5.0 -1.9517957921729177
    vertex 12.305229641752545 0.0 -1.9962755723548895
    vertex 11.556549770809722 0.0 -1.9517957921729177
  endloop
endfacet
facet normal -0.0593063735759621 0.0 -0.9982398279237654
  outer loop
    vertex 12.305229641752545 0.0 -1.9962755723548895
    vertex 11.556549770809722 5.0 -1.9517957921729177
    vertex 12.305229641752545 5.0 -1.9962755723548895
  endloop
endfacet
facet normal -0.9982398279237652 0.0 0.059306373575962086
  outer loop
    vertex 11.556549770809722 5.0 -1.9517957921729177
    vertex 11.853081638689533 0.0 3.039403347445908
    vertex 11.853081638689533 5.0 3.039403347445908
  endloop
endfacet
facet normal -0.9982398279237652 0.0 0.059306373575962086
  outer loop
    vertex 11.853081638689533 0.0 3.039403347445908
    vertex 11.556549770809722 5.0 -1.9517957921729177
    vertex 11.556549770809722 0.0 -1.9517957921729177
  endloop
endfacet
facet normal 0.0593063735759621 0.0 0.9982398279237654
  outer loop
    vertex 12.601761509632356 5.0 2.9949235672639367
    vertex 11.853081638689533 0.0 3.039403347445908
    vertex 12.601761509632356 0.0 2.9949235672639367
  endloop
endfacet
facet normal 0.0593063735759621 0.0 0.9982398279237654
  outer loop
    vertex 11.853081638689533 0.0 3.039403347445908
    vertex 12.601761509632356 5.0 2.9949235672639367
    vertex 11.853081638689533 5.0 3.039403347445908
  endloop
endfacet
facet normal -0.0593063735759621 0.0 -0.9982398279237654
  outer loop
    vertex 11.556549770809722 14.999999999999995 -1.9517957921729177
    vertex 12.055669684771605 9.999999999999995 -1.9814489789608987
    vertex 11.556549770809722 9.999999999999995 -1.9517957921729177
  endloop
endfacet
facet normal -0.0593063735759621 0.0 -0.9982398279237654
  outer loop
    vertex 12.055669684771605 9.999999999999995 -1.9814489789608987
    vertex 11.556549770809722 14.999999999999995 -1.9517957921729177
    vertex 12.055669684771605 14.999999999999995 -1.9814489789608987
  endloop
endfacet
facet normal 0.9982398279237652 0.0 -0.059306373575962086
  outer loop
    vertex 12.055669684771605 9.999999999999995 -1.9814489789608987
    vertex 12.352201552651415 14.999999999999995 3.009750160657927
    vertex 12.352201552651415 9.999999999999995 3.009750160657927
  endloop
endfacet
facet normal 0.9982398279237652 0.0 -0.059306373575962086
  outer loop
    vertex 12.352201552651415 14.999999999999995 3.009750160657927
    vertex 12.055669684771605 9.999999999999995 -1.9814489789608987
    vertex 12.055669684771605 14.999999999999995 -1.9814489789608987
  endloop
endfacet
facet normal 0.0593063735759621 0.0 0.9982398279237654
  outer loop
    vertex 12.352201552651415 14.999999999999995 3.009750160657927
    vertex 11.853081638689533 9.999999999999995 3.039403347445908
    vertex 12.352201552651415 9.999999999999995 3.009750160657927
  endloop
endfacet
facet normal 0.0593063735759621 0.0 0.9982398279237654
  outer loop
    vertex 11.853081638689533 9.999999999999995 3.039403347445908
    vertex 12.352201552651415 14.999999999999995 3.009750160657927
    vertex 11.853081638689533 14.999999999999995 3.039403347445908
  endloop
endfacet
facet normal 0.0 1.0 0.0
  outer loop
    vertex 12.352201552651415 14.999999999999995 3.009750160657927
    vertex 11.556549770809722 14.999999999999995 -1.9517957921729177
    vertex 11.853081638689533 14.999999999999995 3.039403347445908
  endloop
endfacet
facet normal 0.0 1.0 0.0
  outer loop
    vertex 11.556549770809722 14.999999999999995 -1.9517957921729177
    vertex 12.352201552651415 14.999999999999995 3.009750160657927
    vertex 12.055669684771605 14.999999999999995 -1.9814489789608987
  endloop
endfacet
facet normal 0.0 -1.0 0.0
  outer loop
    vertex 12.055669684771605 9.999999999999995 -1.9814489789608987
    vertex 11.853081638689533 9.999999999999995 3.039403347445908
    vertex 11.556549770809722 9.999999999999995 -1.9517957921729177
  endloop
endfacet
facet normal 0.0 -1.0 0.0
  outer loop
    vertex 11.853081638689533 9.999999999999995 3.039403347445908
    vertex 12.055669684771605 9.999999999999995 -1.9814489789608987
    vertex 12.352201552651415 9.999999999999995 3.009750160657927
  endloop
endfacet
facet normal -0.9982398279237652 0.0 0.059306373575962086
  outer loop
    vertex 11.556549770809722 14.999999999999995 -1.9517957921729177
    vertex 11.853081638689533 9.999999999999995 3.039403347445908
    vertex 11.853081638689533 14.999999999999995 3.039403347445908
  endloop
endfacet
facet normal -0.9982398279237652 0.0 0.059306373575962086
  outer loop
    vertex 11.853081638689533 9.999999999999995 3.039403347445908
    vertex 11.556549770809722 14.999999999999995 -1.9517957921729177
    vertex 11.556549770809722 9.999999999999995 -1.9517957921729177
  endloop
endfacet
facet normal 0.0593063735759621 0.0 0.9982398279237654
  outer loop
    vertex 12.851321466613298 -4.999999999999999 2.980096973869946
    vertex 11.853081638689533 -10.0 3.039403347445908
    vertex 12.851321466613298 -10.0 2.980096973869946
  endloop
endfacet
facet normal 0.0593063735759621 0.0 0.9982398279237654
  outer loop
    vertex 11.853081638689533 -10.0 3.039403347445908
    vertex 12.851321466613298 -4.999999999999999 2.980096973869946
    vertex 11.853081638689533 -4.999999999999999 3.039403347445908
  endloop
endfacet
facet normal -0.0593063735759621 0.0 -0.9982398279237654
  outer loop
    vertex 11.556549770809722 -4.999999999999999 -1.9517957921729177
    vertex 12.554789598733487 -10.0 -2.0111021657488797
    vertex 11.556549770809722 -10.0 -1.9517957921729177
  endloop
endfacet
facet normal -0.0593063735759621 0.0 -0.9982398279237654
  outer loop
    vertex 12.554789598733487 -10.0 -2.0111021657488797
    vertex 11.556549770809722 -4.999999999999999 -1.9517957921729177
    vertex 12.554789598733487 -4.999999999999999 -2.0111021657488797
  endloop
endfacet
facet normal 0.0 -1.0 0.0
  outer loop
    vertex 12.554789598733487 -10.0 -2.0111021657488797
    vertex 11.853081638689533 -10.0 3.039403347445908
    vertex 11.556549770809722 -10.0 -1.9517957921729177
  endloop
endfacet
facet normal 0.0 -1.0 0.0
  outer loop
    vertex 11.853081638689533 -10.0 3.039403347445908
    vertex 12.554789598733487 -10.0 -2.0111021657488797
    vertex 12.851321466613298 -10.0 2.980096973869946
  endloop
endfacet
facet normal 0.0 1.0 0.0
  outer loop
    vertex 12.851321466613298 -4.999999999999999 2.980096973869946
    vertex 11.556549770809722 -4.999999999999999 -1.9517957921729177
    vertex 11.853081638689533 -4.999999999999999 3.039403347445908
  endloop
endfacet
facet normal 0.0 1.0 0.0
  outer loop
    vertex 11.556549770809722 -4.999999999999999 -1.9517957921729177
    vertex 12.851321466613298 -4.999999999999999 2.980096973869946
    vertex 12.554789598733487 -4.999999999999999 -2.0111021657488797
  endloop
endfacet
facet normal -0.9982398279237652 0.0 0.059306373575962086
  outer loop
    vertex 11.556549770809722 -4.999999999999999 -1.9517957921729177
    vertex 11.853081638689533 -10.0 3.039403347445908
    vertex 11.853081638689533 -4.999999999999999 3.039403347445908
  endloop
endfacet
facet normal -0.9982398279237652 0.0 0.059306373575962086
  outer loop
    vertex 11.853081638689533 -10.0 3.039403347445908
    vertex 11.556549770809722 -4.999999999999999 -1.9517957921729177
    vertex 11.556549770809722 -10.0 -1.9517957921729177
  endloop
endfacet
facet normal 0.9982398279237652 0.0 -0.059306373575962086
  outer loop
    vertex 12.554789598733487 -10.0 -2.0111021657488797
    vertex 12.851321466613298 -4.999999999999999 2.980096973869946
    vertex 12.851321466613298 -10.0 2.980096973869946
  endloop
endfacet
facet normal 0.9982398279237652 0.0 -0.059306373575962086
  outer loop
    vertex 12.851321466613298 -4.999999999999999 2.980096973869946
    vertex 12.554789598733487 -10.0 -2.0111021657488797
    vertex 12.554789598733487 -4.999999999999999 -2.0111021657488797
  endloop
endfacet
facet normal 0.0 0.0 -1.0
  outer loop
    vertex -4.4762341050161885 2.75460115594825 0.0
    vertex -9.476234105016188 -2.245398844051751 0.0
    vertex -9.476234105016188 2.75460115594825 0.0
  endloop
endfacet
facet normal 0.0 0.0 -1.0
  outer loop
    vertex -9.476234105016188 -2.245398844051751 0.0
    vertex -4.4762341050161885 2.75460115594825 0.0
    vertex -4.4762341050161885 -2.245398844051751 0.0
  endloop
endfacet
facet normal 1.0 0.0 0.0
  outer loop
    vertex -4.4762341050161885 2.75460115594825 0.0
    vertex -4.4762341050161885 -2.245398844051751 0.1999999999999999
    vertex -4.4762341050161885 -2.245398844051751 0.0
  endloop
endfacet
facet normal 1.0 0.0 0.0
  outer loop
    vertex -4.4762341050161885 -2.245398844051751 0.1999999999999999
    vertex -4.4762341050161885 2.75460115594825 0.0
    vertex -4.4762341050161885 2.75460115594825 0.1999999999999999
  endloop
endfacet
facet normal 0.0 0.0 1.0
  outer loop
    vertex -4.4762341050161885 -2.245398844051751 0.1999999999999999
    vertex -9.476234105016188 2.75460115594825 0.1999999999999999
    vertex -9.476234105016188 -2.245398844051751 0.1999999999999999
  endloop
endfacet
facet normal 0.0 0.0 1.0
  outer loop
    vertex -9.476234105016188 2.75460115594825 0.1999999999999999
    vertex -4.4762341050161885 -2.245398844051751 0.1999999999999999
    vertex -4.4762341050161885 2.75460115594825 0.1999999999999999
  endloop
endfacet
facet normal -1.0 0.0 0.0
  outer loop
    vertex -9.476234105016188 2.75460115594825 0.1999999999999999
    vertex -9.476234105016188 -2.245398844051751 0.0
    vertex -9.476234105016188 -2.245398844051751 0.1999999999999999
  endloop
endfacet
facet normal -1.0 0.0 0.0
  outer loop
    vertex -9.476234105016188 -2.245398844051751 0.0
    vertex -9.476234105016188 2.75460115594825 0.1999999999999999
    vertex -9.476234105016188 2.75460115594825 0.0
  endloop
endfacet
facet normal 0.0 1.0 0.0
  outer loop
    vertex -9.476234105016188 2.75460115594825 0.1999999999999999
    vertex -4.4762341050161885 2.75460115594825 0.0
    vertex -9.476234105016188 2.75460115594825 0.0
  endloop
endfacet
facet normal 0.0 1.0 0.0
  outer loop
    vertex -4.4762341050161885 2.75460115594825 0.0
    vertex -9.476234105016188 2.75460115594825 0.1999999999999999
    vertex -4.4762341050161885 2.75460115594825 0.1999999999999999
  endloop
endfacet
facet normal -0.0 -1.0 -0.0
  outer loop
    vertex -4.4762341050161885 -2.245398844051751 0.1999999999999999
    vertex -9.476234105016188 -2.245398844051751 0.0
    vertex -4.4762341050161885 -2.245398844051751 0.0
  endloop
endfacet
facet normal -0.0 -1.0 -0.0
  outer loop
    vertex -9.476234105016188 -2.245398844051751 0.0
    vertex -4.4762341050161885 -2.245398844051751 0.1999999999999999
    vertex -9.476234105016188 -2.245398844051751 0.1999999999999999
  endloop
endfacet
facet normal 0.0 1.0 -6.123233995736766e-17
  outer loop
    vertex -3.3189622469105884 -7.84532988387017 3.973776936896573
    vertex -8.318962246910589 -7.84532988387017 -1.0262230631034281
    vertex -8.318962246910589 -7.84532988387017 3.973776936896573
  endloop
endfacet
facet normal 0.0 1.0 -6.123233995736766e-17
  outer loop
    vertex -8.318962246910589 -7.84532988387017 -1.0262230631034281
    vertex -3.3189622469105884 -7.84532988387017 3.973776936896573
    vertex -3.3189622469105884 -7.84532988387017 -1.0262230631034281
  endloop
endfacet
facet normal 1.0 0.0 0.0
  outer loop
    vertex -3.3189622469105884 -7.84532988387017 3.973776936896573
    vertex -3.3189622469105884 -8.045329883870169 -1.0262230631034281
    vertex -3.3189622469105884 -7.84532988387017 -1.0262230631034281
  endloop
endfacet
facet normal 1.0 0.0 0.0
  outer loop
    vertex -3.3189622469105884 -8.045329883870169 -1.0262230631034281
    vertex -3.3189622469105884 -7.84532988387017 3.973776936896573
    vertex -3.3189622469105884 -8.045329883870169 3.973776936896573
  endloop
endfacet
facet normal 0.0 -1.0 6.123233995736766e-17
  outer loop
    vertex -3.3189622469105884 -8.045329883870169 -1.0262230631034281
    vertex -8.318962246910589 -8.045329883870169 3.973776936896573
    vertex -8.318962246910589 -8.045329883870169 -1.0262230631034281
  endloop
endfacet
facet normal 0.0 -1.0 6.123233995736766e-17
  outer loop
    vertex -8.318962246910589 -8.045329883870169 3.973776936896573
    vertex -3.3189622469105884 -8.045329883870169 -1.0262230631034281
    vertex -3.3189622469105884 -8.045329883870169 3.973776936896573
  endloop
endfacet
facet normal -1.0 0.0 0.0
  outer loop
    vertex -8.318962246910589 -8.045329883870169 3.973776936896573
    vertex -8.318962246910589 -7.84532988387017 -1.0262230631034281
    vertex -8.318962246910589 -8.045329883870169 -1.0262230631034281
  endloop
endfacet
facet normal -1.0 0.0 0.0
  outer loop
    vertex -8.318962246910589 -7.84532988387017 -1.0262230631034281
    vertex -8.318962246910589 -8.045329883870169 3.973776936896573
    vertex -8.318962246910589 -7.84532988387017 3.973776936896573
  endloop
endfacet
facet normal 0.0 6.123233995736766e-17 1.0
  outer loop
    vertex -8.318962246910589 -8.045329883870169 3.973776936896573
    vertex -3.3189622469105884 -7.84532988387017 3.973776936896573
    vertex -8.318962246910589 -7.84532988387017 3.973776936896573
  endloop
endfacet
facet normal 0.0 6.123233995736766e-17 1.0
  outer loop
    vertex -3.3189622469105884 -7.84532988387017 3.973776936896573
    vertex -8.318962246910589 -8.045329883870169 3.973776936896573
    vertex -3.3189622469105884 -8.045329883870169 3.973776936896573
  endloop
endfacet
facet normal 0.0 -6.123233995736766e-17 -1.0
  outer loop
    vertex -3.3189622469105884 -8.045329883870169 -1.0262230631034281
    vertex -8.318962246910589 -7.84532988387017 -1.0262230631034281
    vertex -3.3189622469105884 -7.84532988387017 -1.0262230631034281
  endloop
endfacet
facet normal 0.0 -6.123233995736766e-17 -1.0
  outer loop
    vertex -8.318962246910589 -7.84532988387017 -1.0262230631034281
    vertex -3.3189622469105884 -8.045329883870169 -1.0262230631034281
    vertex -8.318962246910589 -8.045329883870169 -1.0262230631034281
  endloop
endfacet
endsolid thicknesses
