solid flexible-joint
facet normal -3.0661979917766406e-17 -1.0 -4.707839278326834e-19
  outer loop
    vertex 12.999999999999998 -14.0 25.0
    vertex -1.9999999999999998 -14.0 0.0
    vertex 12.999999999999998 -14.0 0.0
  endloop
endfacet
facet normal -3.0661979917766406e-17 -1.0 -4.707839278326834e-19
  outer loop
    vertex -1.9999999999999998 -14.0 0.0
    vertex 12.999999999999998 -14.0 25.0
    vertex -1.0122972696111678 -14.0 25.0
  endloop
endfacet
facet normal -3.0661979917766406e-17 -1.0 -4.707839278326834e-19
  outer loop
    vertex -1.9999999999999998 -14.0 0.0
    vertex -1.0122972696111678 -14.0 25.0
    vertex -2.000000000000125 -14.0 29.513043054471684
  endloop
endfacet
facet normal -3.0661979917766406e-17 -1.0 -4.707839278326834e-19
  outer loop
    vertex -2.000000000000125 -14.0 29.513043054471684
    vertex -1.0122972696111678 -14.0 25.0
    vertex -1.0122972696111678 -14.0 30.513043054471698
  endloop
endfacet
facet normal -3.0661979917766406e-17 -1.0 -4.707839278326834e-19
  outer loop
    vertex -2.000000000000125 -14.0 29.513043054471684
    vertex -1.0122972696111678 -14.0 30.513043054471698
    vertex -3.014310875171942 -14.0 30.51304305447166
  endloop
endfacet
facet normal -3.0661979917766406e-17 -1.0 -4.707839278326834e-19
  outer loop
    vertex -4.0143108751719145 -14.0 29.51304305447164
    vertex -3.014310875171942 -14.0 30.51304305447166
    vertex -4.014310875171999 -14.0 32.513043054471645
  endloop
endfacet
facet normal -3.0661979917766406e-17 -1.0 -4.707839278326834e-19
  outer loop
    vertex -3.014310875171942 -14.0 30.51304305447166
    vertex -4.0143108751719145 -14.0 29.51304305447164
    vertex -2.000000000000125 -14.0 29.513043054471684
  endloop
endfacet
facet normal -3.0661979917766406e-17 -1.0 -4.707839278326834e-19
  outer loop
    vertex -4.014310875171999 -14.0 32.513043054471645
    vertex -3.014310875171942 -14.0 30.51304305447166
    vertex -3.0143108751719705 -14.0 31.513043054471666
  endloop
endfacet
facet normal -3.0661979917766406e-17 -1.0 -4.707839278326834e-19
  outer loop
    vertex -4.014310875171999 -14.0 32.513043054471645
    vertex -3.0143108751719705 -14.0 31.513043054471666
    vertex -1.0143108751719148 -14.0 31.514820386662414
  endloop
endfacet
facet normal -3.0661979917766406e-17 -1.0 -4.707839278326834e-19
  outer loop
    vertex -4.014310875171999 -14.0 32.513043054471645
    vertex -1.0143108751719148 -14.0 31.514820386662414
    vertex -2.0143108751719425 -13.999999999999996 32.51304305447168
  endloop
endfacet
facet normal -3.0661979917766406e-17 -1.0 -4.707839278326834e-19
  outer loop
    vertex -2.0143108751719425 -13.999999999999996 32.51304305447168
    vertex -1.0143108751719148 -14.0 31.514820386662414
    vertex -1.0122972696111234 -14.0 34.51304305447176
  endloop
endfacet
facet normal -3.0661979917766406e-17 -1.0 -4.707839278326834e-19
  outer loop
    vertex -2.0143108751719425 -13.999999999999996 32.51304305447168
    vertex -1.0122972696111234 -14.0 34.51304305447176
    vertex -2.014310875171971 -13.999999999999996 33.51140607576435
  endloop
endfacet
facet normal -3.0661979917766406e-17 -1.0 -4.707839278326834e-19
  outer loop
    vertex -2.014310875171971 -13.999999999999996 33.51140607576435
    vertex -1.0122972696111234 -14.0 34.51304305447176
    vertex -4.012297269611087 -14.0 33.51304305447164
  endloop
endfacet
facet normal -3.0661979917766406e-17 -1.0 -4.707839278326834e-19
  outer loop
    vertex -4.012297269611087 -14.0 33.51304305447164
    vertex -1.0122972696111234 -14.0 34.51304305447176
    vertex -3.014310875171943 -13.999999999999996 34.51304305447168
  endloop
endfacet
facet normal -3.0661979917766406e-17 -1.0 -4.707839278326834e-19
  outer loop
    vertex 12.999999999999991 -14.0 77.68980399999998
    vertex -1.0122972696110861 -14.0 41.02540000000001
    vertex 12.999999999999991 -14.0 41.02540000000001
  endloop
endfacet
facet normal -3.0661979917766406e-17 -1.0 -4.707839278326834e-19
  outer loop
    vertex -3.014310875171943 -13.999999999999996 34.51304305447168
    vertex -4.012297269611124 -14.0 36.513043054471645
    vertex -4.012297269611087 -14.0 33.51304305447164
  endloop
endfacet
facet normal -3.0661979917766406e-17 -1.0 -4.707839278326834e-19
  outer loop
    vertex -4.012297269611124 -14.0 36.513043054471645
    vertex -3.014310875171943 -13.999999999999996 34.51304305447168
    vertex -3.014310875171971 -13.999999999999996 35.51304305447168
  endloop
endfacet
facet normal -3.0661979917766406e-17 -1.0 -4.707839278326834e-19
  outer loop
    vertex -4.012297269611124 -14.0 36.513043054471645
    vertex -3.014310875171971 -13.999999999999996 35.51304305447168
    vertex -1.0122972696110861 -14.0 35.51304305447176
  endloop
endfacet
facet normal -3.0661979917766406e-17 -1.0 -4.707839278326834e-19
  outer loop
    vertex -4.012297269611124 -14.0 36.513043054471645
    vertex -1.0122972696110861 -14.0 35.51304305447176
    vertex -2.0000000000001146 -14.000000000000002 36.51304305447172
  endloop
endfacet
facet normal -3.0661979917766406e-17 -1.0 -4.707839278326834e-19
  outer loop
    vertex -2.0000000000001146 -14.000000000000002 36.51304305447172
    vertex -1.0122972696110861 -14.0 35.51304305447176
    vertex -1.0122972696110861 -14.0 41.02540000000001
  endloop
endfacet
facet normal -3.0661979917766406e-17 -1.0 -4.707839278326834e-19
  outer loop
    vertex -2.0000000000001146 -14.000000000000002 36.51304305447172
    vertex -1.0122972696110861 -14.0 41.02540000000001
    vertex -2.0000000000000075 -14.0 77.68980399999998
  endloop
endfacet
facet normal -3.0661979917766406e-17 -1.0 -4.707839278326834e-19
  outer loop
    vertex -2.0000000000000075 -14.0 77.68980399999998
    vertex -1.0122972696110861 -14.0 41.02540000000001
    vertex 12.999999999999991 -14.0 77.68980399999998
  endloop
endfacet
facet normal 0.0 0.0 -1.0
  outer loop
    vertex -1.0122972696110861 1.9999999999999962 41.02540000000001
    vertex -7.754907827006718e-15 0.0 41.02540000000001
    vertex -1.0122972696110861 -14.0 41.02540000000001
  endloop
endfacet
facet normal 0.0 0.0 -1.0
  outer loop
    vertex -7.754907827006718e-15 0.0 41.02540000000001
    vertex -1.0122972696110861 1.9999999999999962 41.02540000000001
    vertex 12.999999999999991 1.9999999999999991 41.02540000000001
  endloop
endfacet
facet normal 0.0 0.0 -1.0
  outer loop
    vertex -7.754907827006718e-15 0.0 41.02540000000001
    vertex 12.999999999999991 1.9999999999999991 41.02540000000001
    vertex 10.999999999999991 0.0 41.02540000000001
  endloop
endfacet
facet normal 0.0 0.0 -1.0
  outer loop
    vertex 10.999999999999991 0.0 41.02540000000001
    vertex 12.999999999999991 1.9999999999999991 41.02540000000001
    vertex 10.999999999999995 -4.5 41.02540000000001
  endloop
endfacet
facet normal 0.0 0.0 -1.0
  outer loop
    vertex 10.999999999999995 -4.5 41.02540000000001
    vertex 12.999999999999991 1.9999999999999991 41.02540000000001
    vertex 12.999999999999991 -4.5 41.02540000000001
  endloop
endfacet
facet normal 0.0 0.0 -1.0
  outer loop
    vertex -1.0122972696110861 -14.0 41.02540000000001
    vertex -7.754907827006718e-15 -12.0 41.02540000000001
    vertex 12.999999999999991 -14.0 41.02540000000001
  endloop
endfacet
facet normal 0.0 0.0 -1.0
  outer loop
    vertex -7.754907827006718e-15 -12.0 41.02540000000001
    vertex -1.0122972696110861 -14.0 41.02540000000001
    vertex -7.754907827006718e-15 0.0 41.02540000000001
  endloop
endfacet
facet normal 0.0 0.0 -1.0
  outer loop
    vertex 12.999999999999991 -14.0 41.02540000000001
    vertex -7.754907827006718e-15 -12.0 41.02540000000001
    vertex 10.999999999999991 -12.0 41.02540000000001
  endloop
endfacet
facet normal 0.0 0.0 -1.0
  outer loop
    vertex 12.999999999999991 -14.0 41.02540000000001
    vertex 10.999999999999991 -12.0 41.02540000000001
    vertex 10.999999999999995 -7.5 41.02540000000001
  endloop
endfacet
facet normal 0.0 0.0 -1.0
  outer loop
    vertex 12.999999999999991 -14.0 41.02540000000001
    vertex 10.999999999999995 -7.5 41.02540000000001
    vertex 12.999999999999991 -7.5 41.02540000000001
  endloop
endfacet
facet normal -1.0 -2.657277315046409e-15 3.796814958779319e-15
  outer loop
    vertex -2.0000000000000075 -14.0 77.68980399999998
    vertex -2.0000000000001146 1.9999999999999962 36.513043054471716
    vertex -2.0000000000001146 -14.000000000000002 36.51304305447172
  endloop
endfacet
facet normal -1.0 -2.657277315046409e-15 3.796814958779319e-15
  outer loop
    vertex -2.0000000000001146 1.9999999999999962 36.513043054471716
    vertex -2.0000000000000075 -14.0 77.68980399999998
    vertex -2.0000000000000075 1.9999999999999991 77.68980399999998
  endloop
endfacet
facet normal 0.0 1.0 0.0
  outer loop
    vertex -7.754907827006718e-15 -12.0 77.68980399999998
    vertex 10.999999999999991 -12.0 41.02540000000001
    vertex -7.754907827006718e-15 -12.0 41.02540000000001
  endloop
endfacet
facet normal 0.0 1.0 0.0
  outer loop
    vertex 10.999999999999991 -12.0 41.02540000000001
    vertex -7.754907827006718e-15 -12.0 77.68980399999998
    vertex 10.999999999999991 -12.0 77.68980399999998
  endloop
endfacet
facet normal 0.0 0.0 1.0
  outer loop
    vertex -2.0000000000000075 -14.0 77.68980399999998
    vertex -7.754907827006718e-15 -12.0 77.68980399999998
    vertex -2.0000000000000075 1.9999999999999991 77.68980399999998
  endloop
endfacet
facet normal 0.0 0.0 1.0
  outer loop
    vertex -7.754907827006718e-15 -12.0 77.68980399999998
    vertex -2.0000000000000075 -14.0 77.68980399999998
    vertex 12.999999999999991 -14.0 77.68980399999998
  endloop
endfacet
facet normal 0.0 0.0 1.0
  outer loop
    vertex -7.754907827006718e-15 -12.0 77.68980399999998
    vertex 12.999999999999991 -14.0 77.68980399999998
    vertex 10.999999999999991 -12.0 77.68980399999998
  endloop
endfacet
facet normal 0.0 0.0 1.0
  outer loop
    vertex 10.999999999999991 -12.0 77.68980399999998
    vertex 12.999999999999991 -14.0 77.68980399999998
    vertex 10.999999999999991 0.0 77.68980399999998
  endloop
endfacet
facet normal 0.0 0.0 1.0
  outer loop
    vertex -2.0000000000000075 1.9999999999999991 77.68980399999998
    vertex -7.754907827006718e-15 0.0 77.68980399999998
    vertex 12.999999999999991 1.9999999999999991 77.68980399999998
  endloop
endfacet
facet normal 0.0 0.0 1.0
  outer loop
    vertex -7.754907827006718e-15 0.0 77.68980399999998
    vertex -2.0000000000000075 1.9999999999999991 77.68980399999998
    vertex -7.754907827006718e-15 -12.0 77.68980399999998
  endloop
endfacet
facet normal 0.0 0.0 1.0
  outer loop
    vertex 12.999999999999991 1.9999999999999991 77.68980399999998
    vertex -7.754907827006718e-15 0.0 77.68980399999998
    vertex 10.999999999999991 0.0 77.68980399999998
  endloop
endfacet
facet normal 0.0 0.0 1.0
  outer loop
    vertex 12.999999999999991 1.9999999999999991 77.68980399999998
    vertex 10.999999999999991 0.0 77.68980399999998
    vertex 12.999999999999991 -14.0 77.68980399999998
  endloop
endfacet
facet normal 0.0 0.0 1.0
  outer loop
    vertex -1.0122972696111678 -14.0 25.0
    vertex 0.0 -12.0 25.0
    vertex -1.0122972696111678 1.9999999999999991 25.0
  endloop
endfacet
facet normal 0.0 0.0 1.0
  outer loop
    vertex 0.0 -12.0 25.0
    vertex -1.0122972696111678 -14.0 25.0
    vertex 12.999999999999998 -14.0 25.0
  endloop
endfacet
facet normal 0.0 0.0 1.0
  outer loop
    vertex 0.0 -12.0 25.0
    vertex 12.999999999999998 -14.0 25.0
    vertex 11.0 -12.0 25.0
  endloop
endfacet
facet normal 0.0 0.0 1.0
  outer loop
    vertex 11.0 -12.0 25.0
    vertex 12.999999999999998 -14.0 25.0
    vertex 11.0 -7.5 25.0
  endloop
endfacet
facet normal 0.0 0.0 1.0
  outer loop
    vertex 11.0 -7.5 25.0
    vertex 12.999999999999998 -14.0 25.0
    vertex 12.999999999999998 -7.5 25.0
  endloop
endfacet
facet normal 0.0 0.0 1.0
  outer loop
    vertex 12.999999999999998 -4.5 25.0
    vertex 11.0 0.0 25.0
    vertex 11.0 -4.5 25.0
  endloop
endfacet
facet normal 0.0 0.0 1.0
  outer loop
    vertex -1.0122972696111678 1.9999999999999991 25.0
    vertex 0.0 0.0 25.0
    vertex 12.999999999999998 1.9999999999999991 25.0
  endloop
endfacet
facet normal 0.0 0.0 1.0
  outer loop
    vertex 0.0 0.0 25.0
    vertex -1.0122972696111678 1.9999999999999991 25.0
    vertex 0.0 -12.0 25.0
  endloop
endfacet
facet normal 0.0 0.0 1.0
  outer loop
    vertex 12.999999999999998 1.9999999999999991 25.0
    vertex 0.0 0.0 25.0
    vertex 11.0 0.0 25.0
  endloop
endfacet
facet normal 0.0 0.0 1.0
  outer loop
    vertex 12.999999999999998 1.9999999999999991 25.0
    vertex 11.0 0.0 25.0
    vertex 12.999999999999998 -4.5 25.0
  endloop
endfacet
facet normal -0.0 -1.0 -0.0
  outer loop
    vertex 10.999999999999991 0.0 77.68980399999998
    vertex -7.754907827006718e-15 0.0 41.02540000000001
    vertex 10.999999999999991 0.0 41.02540000000001
  endloop
endfacet
facet normal -0.0 -1.0 -0.0
  outer loop
    vertex -7.754907827006718e-15 0.0 41.02540000000001
    vertex 10.999999999999991 0.0 77.68980399999998
    vertex -7.754907827006718e-15 0.0 77.68980399999998
  endloop
endfacet
facet normal 1.0 0.0 0.0
  outer loop
    vertex -7.754907827006718e-15 0.0 41.02540000000001
    vertex -7.754907827006718e-15 -12.0 77.68980399999998
    vertex -7.754907827006718e-15 -12.0 41.02540000000001
  endloop
endfacet
facet normal 1.0 0.0 0.0
  outer loop
    vertex -7.754907827006718e-15 -12.0 77.68980399999998
    vertex -7.754907827006718e-15 0.0 41.02540000000001
    vertex -7.754907827006718e-15 0.0 77.68980399999998
  endloop
endfacet
facet normal -7.729912039656157e-19 1.0 5.451386918268495e-18
  outer loop
    vertex 12.999999999999998 1.9999999999999991 25.0
    vertex 12.999999999999998 1.9999999999999991 0.0
    vertex -1.0122972696111678 1.9999999999999991 25.0
  endloop
endfacet
facet normal -7.729912039656157e-19 1.0 5.451386918268495e-18
  outer loop
    vertex -4.012297269611124 1.9999999999999991 36.513043054471645
    vertex -3.014310875171943 1.9999999999999991 34.51304305447168
    vertex -4.012297269611087 1.9999999999999991 33.51304305447164
  endloop
endfacet
facet normal -7.729912039656157e-19 1.0 5.451386918268495e-18
  outer loop
    vertex -3.014310875171943 1.9999999999999991 34.51304305447168
    vertex -4.012297269611124 1.9999999999999991 36.513043054471645
    vertex -3.014310875171971 1.9999999999999991 35.51304305447168
  endloop
endfacet
facet normal -7.729912039656157e-19 1.0 5.451386918268495e-18
  outer loop
    vertex -3.014310875171971 1.9999999999999991 35.51304305447168
    vertex -4.012297269611124 1.9999999999999991 36.513043054471645
    vertex -1.0122972696110861 1.9999999999999991 35.51304305447176
  endloop
endfacet
facet normal -7.729912039656157e-19 1.0 5.451386918268495e-18
  outer loop
    vertex -1.0122972696110861 1.9999999999999991 35.51304305447176
    vertex -4.012297269611124 1.9999999999999991 36.513043054471645
    vertex -2.0000000000001146 1.9999999999999962 36.513043054471716
  endloop
endfacet
facet normal -7.729912039656157e-19 1.0 5.451386918268495e-18
  outer loop
    vertex -1.0122972696110861 1.9999999999999991 35.51304305447176
    vertex -2.0000000000001146 1.9999999999999962 36.513043054471716
    vertex -1.0122972696110861 1.9999999999999962 41.02540000000001
  endloop
endfacet
facet normal -7.729912039656157e-19 1.0 5.451386918268495e-18
  outer loop
    vertex -1.0122972696110861 1.9999999999999962 41.02540000000001
    vertex -2.0000000000001146 1.9999999999999962 36.513043054471716
    vertex -2.0000000000000075 1.9999999999999991 77.68980399999998
  endloop
endfacet
facet normal -7.729912039656157e-19 1.0 5.451386918268495e-18
  outer loop
    vertex -1.0122972696110861 1.9999999999999962 41.02540000000001
    vertex -2.0000000000000075 1.9999999999999991 77.68980399999998
    vertex 12.999999999999991 1.9999999999999991 41.02540000000001
  endloop
endfacet
facet normal -7.729912039656157e-19 1.0 5.451386918268495e-18
  outer loop
    vertex 12.999999999999991 1.9999999999999991 41.02540000000001
    vertex -2.0000000000000075 1.9999999999999991 77.68980399999998
    vertex 12.999999999999991 1.9999999999999991 77.68980399999998
  endloop
endfacet
facet normal -7.729912039656157e-19 1.0 5.451386918268495e-18
  outer loop
    vertex -4.0143108751719145 1.9999999999999991 29.51304305447164
    vertex -3.014310875171942 1.9999999999999991 30.51304305447166
    vertex -2.000000000000125 1.9999999999999991 29.513043054471684
  endloop
endfacet
facet normal -7.729912039656157e-19 1.0 5.451386918268495e-18
  outer loop
    vertex -3.014310875171942 1.9999999999999991 30.51304305447166
    vertex -4.0143108751719145 1.9999999999999991 29.51304305447164
    vertex -4.014310875171999 1.9999999999999991 32.513043054471645
  endloop
endfacet
facet normal -7.729912039656157e-19 1.0 5.451386918268495e-18
  outer loop
    vertex -3.014310875171942 1.9999999999999991 30.51304305447166
    vertex -4.014310875171999 1.9999999999999991 32.513043054471645
    vertex -3.0143108751719705 1.9999999999999991 31.513043054471666
  endloop
endfacet
facet normal -7.729912039656157e-19 1.0 5.451386918268495e-18
  outer loop
    vertex -3.0143108751719705 1.9999999999999991 31.513043054471666
    vertex -4.014310875171999 1.9999999999999991 32.513043054471645
    vertex -1.0143108751719148 2.0000000000000018 31.51482038666241
  endloop
endfacet
facet normal -7.729912039656157e-19 1.0 5.451386918268495e-18
  outer loop
    vertex -1.0143108751719148 2.0000000000000018 31.51482038666241
    vertex -4.014310875171999 1.9999999999999991 32.513043054471645
    vertex -2.0143108751719425 1.9999999999999991 32.51304305447168
  endloop
endfacet
facet normal -7.729912039656157e-19 1.0 5.451386918268495e-18
  outer loop
    vertex -1.0143108751719148 2.0000000000000018 31.51482038666241
    vertex -2.0143108751719425 1.9999999999999991 32.51304305447168
    vertex -1.0122972696111234 1.9999999999999991 34.51304305447175
  endloop
endfacet
facet normal -7.729912039656157e-19 1.0 5.451386918268495e-18
  outer loop
    vertex -1.0122972696111234 1.9999999999999991 34.51304305447175
    vertex -2.0143108751719425 1.9999999999999991 32.51304305447168
    vertex -2.014310875171971 2.0000000000000018 33.51140607576435
  endloop
endfacet
facet normal -7.729912039656157e-19 1.0 5.451386918268495e-18
  outer loop
    vertex -1.0122972696111234 1.9999999999999991 34.51304305447175
    vertex -2.014310875171971 2.0000000000000018 33.51140607576435
    vertex -4.012297269611087 1.9999999999999991 33.51304305447164
  endloop
endfacet
facet normal -7.729912039656157e-19 1.0 5.451386918268495e-18
  outer loop
    vertex -1.0122972696111234 1.9999999999999991 34.51304305447175
    vertex -4.012297269611087 1.9999999999999991 33.51304305447164
    vertex -3.014310875171943 1.9999999999999991 34.51304305447168
  endloop
endfacet
facet normal -7.729912039656157e-19 1.0 5.451386918268495e-18
  outer loop
    vertex -1.9999999999999998 1.9999999999999991 0.0
    vertex -1.0122972696111678 1.9999999999999991 25.0
    vertex 12.999999999999998 1.9999999999999991 0.0
  endloop
endfacet
facet normal -7.729912039656157e-19 1.0 5.451386918268495e-18
  outer loop
    vertex -1.0122972696111678 1.9999999999999991 25.0
    vertex -1.9999999999999998 1.9999999999999991 0.0
    vertex -2.000000000000125 1.9999999999999991 29.513043054471684
  endloop
endfacet
facet normal -7.729912039656157e-19 1.0 5.451386918268495e-18
  outer loop
    vertex -1.0122972696111678 1.9999999999999991 25.0
    vertex -2.000000000000125 1.9999999999999991 29.513043054471684
    vertex -1.0122972696111678 1.9999999999999991 30.513043054471698
  endloop
endfacet
facet normal -7.729912039656157e-19 1.0 5.451386918268495e-18
  outer loop
    vertex -1.0122972696111678 1.9999999999999991 30.513043054471698
    vertex -2.000000000000125 1.9999999999999991 29.513043054471684
    vertex -3.014310875171942 1.9999999999999991 30.51304305447166
  endloop
endfacet
facet normal -1.0 4.831623606951681e-16 -9.019030732976453e-15
  outer loop
    vertex -4.012297269611124 1.9999999999999991 36.513043054471645
    vertex -4.012297269611087 -14.0 33.51304305447164
    vertex -4.012297269611124 -14.0 36.513043054471645
  endloop
endfacet
facet normal -1.0 4.831623606951681e-16 -9.019030732976453e-15
  outer loop
    vertex -4.012297269611087 -14.0 33.51304305447164
    vertex -4.012297269611124 1.9999999999999991 36.513043054471645
    vertex -4.012297269611087 1.9999999999999991 33.51304305447164
  endloop
endfacet
facet normal -1.0 0.0 -2.8199664825478973e-14
  outer loop
    vertex -4.014310875171999 1.9999999999999991 32.513043054471645
    vertex -4.0143108751719145 -14.0 29.51304305447164
    vertex -4.014310875171999 -14.0 32.513043054471645
  endloop
endfacet
facet normal -1.0 0.0 -2.8199664825478973e-14
  outer loop
    vertex -4.0143108751719145 -14.0 29.51304305447164
    vertex -4.014310875171999 1.9999999999999991 32.513043054471645
    vertex -4.0143108751719145 1.9999999999999991 29.51304305447164
  endloop
endfacet
facet normal 1.0 0.0 0.0
  outer loop
    vertex 0.0 0.0 0.0
    vertex 0.0 -12.0 25.0
    vertex 0.0 -12.0 0.0
  endloop
endfacet
facet normal 1.0 0.0 0.0
  outer loop
    vertex 0.0 -12.0 25.0
    vertex 0.0 0.0 0.0
    vertex 0.0 0.0 25.0
  endloop
endfacet
facet normal -1.0 0.0 -2.3277912596226704e-17
  outer loop
    vertex 10.999999999999991 -12.0 77.68980399999998
    vertex 10.999999999999995 -7.5 61.955337000000014
    vertex 10.999999999999991 -12.0 41.02540000000001
  endloop
endfacet
facet normal -1.0 0.0 -2.3277912596226704e-17
  outer loop
    vertex 10.999999999999995 -7.5 61.955337000000014
    vertex 10.999999999999991 -12.0 77.68980399999998
    vertex 10.999999999999991 0.0 77.68980399999998
  endloop
endfacet
facet normal -1.0 0.0 -2.3277912596226704e-17
  outer loop
    vertex 10.999999999999995 -7.5 61.955337000000014
    vertex 10.999999999999991 0.0 77.68980399999998
    vertex 10.999999999999995 -4.5 61.955337000000014
  endloop
endfacet
facet normal -1.0 0.0 -2.3277912596226704e-17
  outer loop
    vertex 10.999999999999995 -4.5 61.955337000000014
    vertex 10.999999999999991 0.0 77.68980399999998
    vertex 10.999999999999995 -4.5 41.02540000000001
  endloop
endfacet
facet normal -1.0 0.0 -2.3277912596226704e-17
  outer loop
    vertex 10.999999999999995 -4.5 41.02540000000001
    vertex 10.999999999999991 0.0 77.68980399999998
    vertex 10.999999999999991 0.0 41.02540000000001
  endloop
endfacet
facet normal -1.0 0.0 -2.3277912596226704e-17
  outer loop
    vertex 10.999999999999995 -7.5 41.02540000000001
    vertex 10.999999999999991 -12.0 41.02540000000001
    vertex 10.999999999999995 -7.5 61.955337000000014
  endloop
endfacet
facet normal 1.0 0.0 0.0
  outer loop
    vertex 12.999999999999998 -14.0 0.0
    vertex 12.999999999999998 -7.5 11.955337000000014
    vertex 12.999999999999998 -14.0 25.0
  endloop
endfacet
facet normal 1.0 0.0 0.0
  outer loop
    vertex 12.999999999999998 -7.5 11.955337000000014
    vertex 12.999999999999998 -14.0 0.0
    vertex 12.999999999999998 1.9999999999999991 0.0
  endloop
endfacet
facet normal 1.0 0.0 0.0
  outer loop
    vertex 12.999999999999998 -7.5 11.955337000000014
    vertex 12.999999999999998 1.9999999999999991 0.0
    vertex 12.999999999999998 -4.5 11.955337000000014
  endloop
endfacet
facet normal 1.0 0.0 0.0
  outer loop
    vertex 12.999999999999998 -4.5 11.955337000000014
    vertex 12.999999999999998 1.9999999999999991 0.0
    vertex 12.999999999999998 -4.5 25.0
  endloop
endfacet
facet normal 1.0 0.0 0.0
  outer loop
    vertex 12.999999999999998 -4.5 25.0
    vertex 12.999999999999998 1.9999999999999991 0.0
    vertex 12.999999999999998 1.9999999999999991 25.0
  endloop
endfacet
facet normal 1.0 0.0 0.0
  outer loop
    vertex 12.999999999999998 -7.5 25.0
    vertex 12.999999999999998 -14.0 25.0
    vertex 12.999999999999998 -7.5 11.955337000000014
  endloop
endfacet
facet normal 0.0 0.0 -1.0
  outer loop
    vertex 12.999999999999991 -4.5 61.955337000000014
    vertex 10.999999999999995 -7.5 61.955337000000014
    vertex 10.999999999999995 -4.5 61.955337000000014
  endloop
endfacet
facet normal 0.0 0.0 -1.0
  outer loop
    vertex 10.999999999999995 -7.5 61.955337000000014
    vertex 12.999999999999991 -4.5 61.955337000000014
    vertex 12.999999999999991 -7.5 61.955337000000014
  endloop
endfacet
facet normal -1.971991131629305e-14 0.0 1.0
  outer loop
    vertex -1.0122972696111678 -14.0 30.513043054471698
    vertex -3.014310875171942 1.9999999999999991 30.51304305447166
    vertex -3.014310875171942 -14.0 30.51304305447166
  endloop
endfacet
facet normal -1.971991131629305e-14 0.0 1.0
  outer loop
    vertex -3.014310875171942 1.9999999999999991 30.51304305447166
    vertex -1.0122972696111678 -14.0 30.513043054471698
    vertex -1.0122972696111678 1.9999999999999991 30.513043054471698
  endloop
endfacet
facet normal 0.0 -1.0 0.0
  outer loop
    vertex 12.999999999999991 -4.5 61.955337000000014
    vertex 10.999999999999995 -4.5 41.02540000000001
    vertex 12.999999999999991 -4.5 41.02540000000001
  endloop
endfacet
facet normal 0.0 -1.0 0.0
  outer loop
    vertex 10.999999999999995 -4.5 41.02540000000001
    vertex 12.999999999999991 -4.5 61.955337000000014
    vertex 10.999999999999995 -4.5 61.955337000000014
  endloop
endfacet
facet normal 1.0 0.0 0.0
  outer loop
    vertex -1.0122972696110861 1.9999999999999991 35.51304305447176
    vertex -1.0122972696110861 -14.0 41.02540000000001
    vertex -1.0122972696110861 -14.0 35.51304305447176
  endloop
endfacet
facet normal 1.0 0.0 0.0
  outer loop
    vertex -1.0122972696110861 -14.0 41.02540000000001
    vertex -1.0122972696110861 1.9999999999999991 35.51304305447176
    vertex -1.0122972696110861 1.9999999999999962 41.02540000000001
  endloop
endfacet
facet normal 0.0 1.0 0.0
  outer loop
    vertex 10.999999999999995 -7.5 61.955337000000014
    vertex 12.999999999999991 -7.5 41.02540000000001
    vertex 10.999999999999995 -7.5 41.02540000000001
  endloop
endfacet
facet normal 0.0 1.0 0.0
  outer loop
    vertex 12.999999999999991 -7.5 41.02540000000001
    vertex 10.999999999999995 -7.5 61.955337000000014
    vertex 12.999999999999991 -7.5 61.955337000000014
  endloop
endfacet
facet normal 1.0 0.0 0.0
  outer loop
    vertex -1.0122972696111678 1.9999999999999991 25.0
    vertex -1.0122972696111678 -14.0 30.513043054471698
    vertex -1.0122972696111678 -14.0 25.0
  endloop
endfacet
facet normal 1.0 0.0 0.0
  outer loop
    vertex -1.0122972696111678 -14.0 30.513043054471698
    vertex -1.0122972696111678 1.9999999999999991 25.0
    vertex -1.0122972696111678 1.9999999999999991 30.513043054471698
  endloop
endfacet
facet normal -0.0008193139665091626 -2.74981460133788e-21 -0.9999996643622558
  outer loop
    vertex -2.014310875171971 2.0000000000000018 33.51140607576435
    vertex -4.012297269611087 -14.0 33.51304305447164
    vertex -4.012297269611087 1.9999999999999991 33.51304305447164
  endloop
endfacet
facet normal -0.0008193139665091626 -2.74981460133788e-21 -0.9999996643622558
  outer loop
    vertex -4.012297269611087 -14.0 33.51304305447164
    vertex -2.014310875171971 2.0000000000000018 33.51140607576435
    vertex -2.014310875171971 -13.999999999999996 33.51140607576435
  endloop
endfacet
facet normal 0.0008886657444712132 -1.7624096329718285e-16 -0.9999996051365194
  outer loop
    vertex -1.0143108751719148 2.0000000000000018 31.51482038666241
    vertex -3.0143108751719705 -14.0 31.513043054471666
    vertex -3.0143108751719705 1.9999999999999991 31.513043054471666
  endloop
endfacet
facet normal 0.0008886657444712132 -1.7624096329718285e-16 -0.9999996051365194
  outer loop
    vertex -3.0143108751719705 -14.0 31.513043054471666
    vertex -1.0143108751719148 2.0000000000000018 31.51482038666241
    vertex -1.0143108751719148 -14.0 31.514820386662414
  endloop
endfacet
facet normal 0.0 1.0 0.0
  outer loop
    vertex 11.0 -7.5 25.0
    vertex 12.999999999999998 -7.5 11.955337000000014
    vertex 11.000000000000002 -7.5 11.955337000000014
  endloop
endfacet
facet normal 0.0 1.0 0.0
  outer loop
    vertex 12.999999999999998 -7.5 11.955337000000014
    vertex 11.0 -7.5 25.0
    vertex 12.999999999999998 -7.5 25.0
  endloop
endfacet
facet normal 1.0 0.0 0.0
  outer loop
    vertex 12.999999999999991 1.9999999999999991 41.02540000000001
    vertex 12.999999999999991 -4.5 61.955337000000014
    vertex 12.999999999999991 -4.5 41.02540000000001
  endloop
endfacet
facet normal 1.0 0.0 0.0
  outer loop
    vertex 12.999999999999991 -7.5 41.02540000000001
    vertex 12.999999999999991 -14.0 77.68980399999998
    vertex 12.999999999999991 -14.0 41.02540000000001
  endloop
endfacet
facet normal 1.0 0.0 0.0
  outer loop
    vertex 12.999999999999991 -14.0 77.68980399999998
    vertex 12.999999999999991 -7.5 41.02540000000001
    vertex 12.999999999999991 -7.5 61.955337000000014
  endloop
endfacet
facet normal 1.0 0.0 0.0
  outer loop
    vertex 12.999999999999991 -14.0 77.68980399999998
    vertex 12.999999999999991 -7.5 61.955337000000014
    vertex 12.999999999999991 1.9999999999999991 77.68980399999998
  endloop
endfacet
facet normal 1.0 0.0 0.0
  outer loop
    vertex 12.999999999999991 1.9999999999999991 77.68980399999998
    vertex 12.999999999999991 -7.5 61.955337000000014
    vertex 12.999999999999991 -4.5 61.955337000000014
  endloop
endfacet
facet normal 1.0 0.0 0.0
  outer loop
    vertex 12.999999999999991 1.9999999999999991 77.68980399999998
    vertex 12.999999999999991 -4.5 61.955337000000014
    vertex 12.999999999999991 1.9999999999999991 41.02540000000001
  endloop
endfacet
facet normal -1.0 -0.0 -2.299565824956908e-17
  outer loop
    vertex 11.0 0.0 25.0
    vertex 11.000000000000002 -4.5 11.955337000000014
    vertex 11.0 -4.5 25.0
  endloop
endfacet
facet normal -1.0 -0.0 -2.299565824956908e-17
  outer loop
    vertex 11.0 -7.5 25.0
    vertex 11.0 -12.0 0.0
    vertex 11.0 -12.0 25.0
  endloop
endfacet
facet normal -1.0 -0.0 -2.299565824956908e-17
  outer loop
    vertex 11.0 -12.0 0.0
    vertex 11.0 -7.5 25.0
    vertex 11.000000000000002 -7.5 11.955337000000014
  endloop
endfacet
facet normal -1.0 -0.0 -2.299565824956908e-17
  outer loop
    vertex 11.0 -12.0 0.0
    vertex 11.000000000000002 -7.5 11.955337000000014
    vertex 11.0 0.0 0.0
  endloop
endfacet
facet normal -1.0 -0.0 -2.299565824956908e-17
  outer loop
    vertex 11.0 0.0 0.0
    vertex 11.000000000000002 -7.5 11.955337000000014
    vertex 11.000000000000002 -4.5 11.955337000000014
  endloop
endfacet
facet normal -1.0 -0.0 -2.299565824956908e-17
  outer loop
    vertex 11.0 0.0 0.0
    vertex 11.000000000000002 -4.5 11.955337000000014
    vertex 11.0 0.0 25.0
  endloop
endfacet
facet normal 0.9999997744769717 1.0780996317842844e-17 -0.0006715995874142766
  outer loop
    vertex -1.0143108751719148 2.0000000000000018 31.51482038666241
    vertex -1.0122972696111234 -14.0 34.51304305447176
    vertex -1.0143108751719148 -14.0 31.514820386662414
  endloop
endfacet
facet normal 0.9999997744769717 1.0780996317842844e-17 -0.0006715995874142766
  outer loop
    vertex -1.0122972696111234 -14.0 34.51304305447176
    vertex -1.0143108751719148 2.0000000000000018 31.51482038666241
    vertex -1.0122972696111234 1.9999999999999991 34.51304305447175
  endloop
endfacet
facet normal -1.0 -0.0 -4.2280803312092826e-15
  outer loop
    vertex -2.000000000000125 1.9999999999999991 29.513043054471684
    vertex -1.9999999999999998 -14.0 0.0
    vertex -2.000000000000125 -14.0 29.513043054471684
  endloop
endfacet
facet normal -1.0 -0.0 -4.2280803312092826e-15
  outer loop
    vertex -1.9999999999999998 -14.0 0.0
    vertex -2.000000000000125 1.9999999999999991 29.513043054471684
    vertex -1.9999999999999998 1.9999999999999991 0.0
  endloop
endfacet
facet normal 1.0 0.0 2.8199664825478708e-14
  outer loop
    vertex -3.014310875171942 1.9999999999999991 30.51304305447166
    vertex -3.0143108751719705 -14.0 31.513043054471666
    vertex -3.014310875171942 -14.0 30.51304305447166
  endloop
endfacet
facet normal 1.0 0.0 2.8199664825478708e-14
  outer loop
    vertex -3.0143108751719705 -14.0 31.513043054471666
    vertex -3.014310875171942 1.9999999999999991 30.51304305447166
    vertex -3.0143108751719705 1.9999999999999991 31.513043054471666
  endloop
endfacet
facet normal -0.0 -1.0 -0.0
  outer loop
    vertex 11.0 0.0 25.0
    vertex 0.0 0.0 0.0
    vertex 11.0 0.0 0.0
  endloop
endfacet
facet normal -0.0 -1.0 -0.0
  outer loop
    vertex 0.0 0.0 0.0
    vertex 11.0 0.0 25.0
    vertex 0.0 0.0 25.0
  endloop
endfacet
facet normal -3.803125753856432e-14 1.7624790515924357e-16 1.0
  outer loop
    vertex -1.0122972696111234 -14.0 34.51304305447176
    vertex -3.014310875171943 1.9999999999999991 34.51304305447168
    vertex -3.014310875171943 -13.999999999999996 34.51304305447168
  endloop
endfacet
facet normal -3.803125753856432e-14 1.7624790515924357e-16 1.0
  outer loop
    vertex -3.014310875171943 1.9999999999999991 34.51304305447168
    vertex -1.0122972696111234 -14.0 34.51304305447176
    vertex -1.0122972696111234 1.9999999999999991 34.51304305447175
  endloop
endfacet
facet normal -1.0 6.097376758971765e-32 -2.8245902766877736e-14
  outer loop
    vertex -2.014310875171971 2.0000000000000018 33.51140607576435
    vertex -2.0143108751719425 -13.999999999999996 32.51304305447168
    vertex -2.014310875171971 -13.999999999999996 33.51140607576435
  endloop
endfacet
facet normal -1.0 6.097376758971765e-32 -2.8245902766877736e-14
  outer loop
    vertex -2.0143108751719425 -13.999999999999996 32.51304305447168
    vertex -2.014310875171971 2.0000000000000018 33.51140607576435
    vertex -2.0143108751719425 1.9999999999999991 32.51304305447168
  endloop
endfacet
facet normal -0.0 -1.0 -0.0
  outer loop
    vertex 12.999999999999998 -4.5 25.0
    vertex 11.000000000000002 -4.5 11.955337000000014
    vertex 12.999999999999998 -4.5 11.955337000000014
  endloop
endfacet
facet normal -0.0 -1.0 -0.0
  outer loop
    vertex 11.000000000000002 -4.5 11.955337000000014
    vertex 12.999999999999998 -4.5 25.0
    vertex 11.0 -4.5 25.0
  endloop
endfacet
facet normal -3.783690222047136e-14 1.7624790515924357e-16 1.0
  outer loop
    vertex -2.0000000000001146 -14.000000000000002 36.51304305447172
    vertex -4.012297269611124 1.9999999999999991 36.513043054471645
    vertex -4.012297269611124 -14.0 36.513043054471645
  endloop
endfacet
facet normal -3.783690222047136e-14 1.7624790515924357e-16 1.0
  outer loop
    vertex -4.012297269611124 1.9999999999999991 36.513043054471645
    vertex -2.0000000000001146 -14.000000000000002 36.51304305447172
    vertex -2.0000000000001146 1.9999999999999962 36.513043054471716
  endloop
endfacet
facet normal 0.0 0.0 1.0
  outer loop
    vertex 12.999999999999998 -7.5 11.955337000000014
    vertex 11.000000000000002 -4.5 11.955337000000014
    vertex 11.000000000000002 -7.5 11.955337000000014
  endloop
endfacet
facet normal 0.0 0.0 1.0
  outer loop
    vertex 11.000000000000002 -4.5 11.955337000000014
    vertex 12.999999999999998 -7.5 11.955337000000014
    vertex 12.999999999999998 -4.5 11.955337000000014
  endloop
endfacet
facet normal 1.0 0.0 2.819966482547887e-14
  outer loop
    vertex -3.014310875171943 1.9999999999999991 34.51304305447168
    vertex -3.014310875171971 -13.999999999999996 35.51304305447168
    vertex -3.014310875171943 -13.999999999999996 34.51304305447168
  endloop
endfacet
facet normal 1.0 0.0 2.819966482547887e-14
  outer loop
    vertex -3.014310875171971 -13.999999999999996 35.51304305447168
    vertex -3.014310875171943 1.9999999999999991 34.51304305447168
    vertex -3.014310875171971 1.9999999999999991 35.51304305447168
  endloop
endfacet
facet normal 0.0 1.0 0.0
  outer loop
    vertex 0.0 -12.0 25.0
    vertex 11.0 -12.0 0.0
    vertex 0.0 -12.0 0.0
  endloop
endfacet
facet normal 0.0 1.0 0.0
  outer loop
    vertex 11.0 -12.0 0.0
    vertex 0.0 -12.0 25.0
    vertex 11.0 -12.0 25.0
  endloop
endfacet
facet normal -1.9739765377834723e-14 -1.069743222764735e-31 1.0
  outer loop
    vertex -2.0143108751719425 -13.999999999999996 32.51304305447168
    vertex -4.014310875171999 1.9999999999999991 32.513043054471645
    vertex -4.014310875171999 -14.0 32.513043054471645
  endloop
endfacet
facet normal -1.9739765377834723e-14 -1.069743222764735e-31 1.0
  outer loop
    vertex -4.014310875171999 1.9999999999999991 32.513043054471645
    vertex -2.0143108751719425 -13.999999999999996 32.51304305447168
    vertex -2.0143108751719425 1.9999999999999991 32.51304305447168
  endloop
endfacet
facet normal -0.0 -0.0 -1.0
  outer loop
    vertex -1.9999999999999998 1.9999999999999991 0.0
    vertex 0.0 0.0 0.0
    vertex -1.9999999999999998 -14.0 0.0
  endloop
endfacet
facet normal -0.0 -0.0 -1.0
  outer loop
    vertex 0.0 0.0 0.0
    vertex -1.9999999999999998 1.9999999999999991 0.0
    vertex 12.999999999999998 1.9999999999999991 0.0
  endloop
endfacet
facet normal -0.0 -0.0 -1.0
  outer loop
    vertex 0.0 0.0 0.0
    vertex 12.999999999999998 1.9999999999999991 0.0
    vertex 11.0 0.0 0.0
  endloop
endfacet
facet normal -0.0 -0.0 -1.0
  outer loop
    vertex 11.0 0.0 0.0
    vertex 12.999999999999998 1.9999999999999991 0.0
    vertex 11.0 -12.0 0.0
  endloop
endfacet
facet normal -0.0 -0.0 -1.0
  outer loop
    vertex -1.9999999999999998 -14.0 0.0
    vertex 0.0 -12.0 0.0
    vertex 12.999999999999998 -14.0 0.0
  endloop
endfacet
facet normal -0.0 -0.0 -1.0
  outer loop
    vertex 0.0 -12.0 0.0
    vertex -1.9999999999999998 -14.0 0.0
    vertex 0.0 0.0 0.0
  endloop
endfacet
facet normal -0.0 -0.0 -1.0
  outer loop
    vertex 12.999999999999998 -14.0 0.0
    vertex 0.0 -12.0 0.0
    vertex 11.0 -12.0 0.0
  endloop
endfacet
facet normal -0.0 -0.0 -1.0
  outer loop
    vertex 12.999999999999998 -14.0 0.0
    vertex 11.0 -12.0 0.0
    vertex 12.999999999999998 1.9999999999999991 0.0
  endloop
endfacet
facet normal 3.662269244454221e-14 4.064236800276991e-32 -1.0
  outer loop
    vertex -1.0122972696110861 1.9999999999999991 35.51304305447176
    vertex -3.014310875171971 -13.999999999999996 35.51304305447168
    vertex -3.014310875171971 1.9999999999999991 35.51304305447168
  endloop
endfacet
facet normal 3.662269244454221e-14 4.064236800276991e-32 -1.0
  outer loop
    vertex -3.014310875171971 -13.999999999999996 35.51304305447168
    vertex -1.0122972696110861 1.9999999999999991 35.51304305447176
    vertex -1.0122972696110861 -14.0 35.51304305447176
  endloop
endfacet
facet normal 1.9599522219877588e-14 0.0 -1.0
  outer loop
    vertex -2.000000000000125 1.9999999999999991 29.513043054471684
    vertex -4.0143108751719145 -14.0 29.51304305447164
    vertex -4.0143108751719145 1.9999999999999991 29.51304305447164
  endloop
endfacet
facet normal 1.9599522219877588e-14 0.0 -1.0
  outer loop
    vertex -4.0143108751719145 -14.0 29.51304305447164
    vertex -2.000000000000125 1.9999999999999991 29.513043054471684
    vertex -2.000000000000125 -14.0 29.513043054471684
  endloop
endfacet
endsolid flexible-joint
