solid compound-joint-with-dovetail-ex-1
facet normal -0.4472135954999583 0.8944271909999156 -1.345456766052596e-16
  outer loop
    vertex -27.680824549458528 -6.696024083333332 5.999977463800118
    vertex -25.48082454945852 -5.596024083333329 -0.20002253619988197
    vertex -27.680824549458528 -6.696024083333334 -0.20002253619988197
  endloop
endfacet
facet normal -0.4472135954999583 0.8944271909999156 -1.345456766052596e-16
  outer loop
    vertex -25.48082454945852 -5.596024083333329 -0.20002253619988197
    vertex -27.680824549458528 -6.696024083333332 5.999977463800118
    vertex -25.48082454945852 -5.596024083333329 5.999977463800118
  endloop
endfacet
facet normal 1.7077009741104474e-18 0.005226741589005539 -0.9999863404928898
  outer loop
    vertex -25.48082454945852 10.3 -5.897531929300101
    vertex -28.68082454945853 -9.3 -5.999977463800117
    vertex -28.68082454945853 10.3 -5.897531929300101
  endloop
endfacet
facet normal 1.7077009741104474e-18 0.005226741589005539 -0.9999863404928898
  outer loop
    vertex -28.68082454945853 -9.3 -5.999977463800117
    vertex -25.48082454945852 10.3 -5.897531929300101
    vertex -25.48082454945852 -9.3 -5.999977463800117
  endloop
endfacet
facet normal 1.0 0.0 0.0
  outer loop
    vertex -27.680824549458528 -2.096024083333335 -0.20002253619988197
    vertex -27.680824549458528 -6.696024083333332 5.999977463800118
    vertex -27.680824549458528 -6.696024083333334 -0.20002253619988197
  endloop
endfacet
facet normal 1.0 0.0 0.0
  outer loop
    vertex -27.680824549458528 -6.696024083333332 5.999977463800118
    vertex -27.680824549458528 -2.096024083333335 -0.20002253619988197
    vertex -27.680824549458528 -2.096024083333335 5.999977463800118
  endloop
endfacet
facet normal -0.4472135954999561 -0.8944271909999169 -1.516285042621981e-17
  outer loop
    vertex -25.48082454945852 6.603975916666666 5.999977463800118
    vertex -27.680824549458528 7.703975916666664 -0.20002253619988197
    vertex -25.48082454945852 6.603975916666666 -0.20002253619988197
  endloop
endfacet
facet normal -0.4472135954999561 -0.8944271909999169 -1.516285042621981e-17
  outer loop
    vertex -27.680824549458528 7.703975916666664 -0.20002253619988197
    vertex -25.48082454945852 6.603975916666666 5.999977463800118
    vertex -27.680824549458528 7.703975916666664 5.999977463800118
  endloop
endfacet
facet normal 1.0 0.0 0.0
  outer loop
    vertex -27.680824549458528 7.703975916666664 -0.20002253619988197
    vertex -27.680824549458528 3.1039759166666685 5.999977463800118
    vertex -27.680824549458528 3.103975916666666 -0.20002253619988197
  endloop
endfacet
facet normal 1.0 0.0 0.0
  outer loop
    vertex -27.680824549458528 3.1039759166666685 5.999977463800118
    vertex -27.680824549458528 7.703975916666664 -0.20002253619988197
    vertex -27.680824549458528 7.703975916666664 5.999977463800118
  endloop
endfacet
facet normal 0.0 1.0 0.0
  outer loop
    vertex -28.68082454945853 10.3 5.999977463800118
    vertex -25.48082454945852 10.3 -5.897531929300101
    vertex -28.68082454945853 10.3 -5.897531929300101
  endloop
endfacet
facet normal 0.0 1.0 0.0
  outer loop
    vertex -25.48082454945852 10.3 -5.897531929300101
    vertex -28.68082454945853 10.3 5.999977463800118
    vertex -25.48082454945852 10.3 5.999977463800118
  endloop
endfacet
facet normal -0.4472135954999583 0.8944271909999156 -1.345456766052596e-16
  outer loop
    vertex -27.680824549458528 3.1039759166666685 5.999977463800118
    vertex -25.48082454945852 4.20397591666667 -0.20002253619988197
    vertex -27.680824549458528 3.103975916666666 -0.20002253619988197
  endloop
endfacet
facet normal -0.4472135954999583 0.8944271909999156 -1.345456766052596e-16
  outer loop
    vertex -25.48082454945852 4.20397591666667 -0.20002253619988197
    vertex -27.680824549458528 3.1039759166666685 5.999977463800118
    vertex -25.48082454945852 4.20397591666667 5.999977463800118
  endloop
endfacet
facet normal 1.2262930061463642e-16 8.684784759567384e-33 1.0
  outer loop
    vertex -25.48082454945852 4.20397591666667 -0.20002253619988197
    vertex -27.680824549458528 7.703975916666664 -0.20002253619988197
    vertex -27.680824549458528 3.103975916666666 -0.20002253619988197
  endloop
endfacet
facet normal 1.2262930061463642e-16 8.684784759567384e-33 1.0
  outer loop
    vertex -27.680824549458528 7.703975916666664 -0.20002253619988197
    vertex -25.48082454945852 4.20397591666667 -0.20002253619988197
    vertex -25.48082454945852 6.603975916666666 -0.20002253619988197
  endloop
endfacet
facet normal 0.0 0.0 1.0
  outer loop
    vertex -28.68082454945853 -9.3 5.999977463800118
    vertex -27.680824549458528 -6.696024083333332 5.999977463800118
    vertex -28.68082454945853 10.3 5.999977463800118
  endloop
endfacet
facet normal 0.0 0.0 1.0
  outer loop
    vertex -27.680824549458528 -6.696024083333332 5.999977463800118
    vertex -28.68082454945853 -9.3 5.999977463800118
    vertex -25.48082454945852 -9.3 5.999977463800118
  endloop
endfacet
facet normal 0.0 0.0 1.0
  outer loop
    vertex -27.680824549458528 -6.696024083333332 5.999977463800118
    vertex -25.48082454945852 -9.3 5.999977463800118
    vertex -25.48082454945852 -5.596024083333329 5.999977463800118
  endloop
endfacet
facet normal 0.0 0.0 1.0
  outer loop
    vertex -25.48082454945852 -3.1960240833333327 5.999977463800118
    vertex -27.680824549458528 3.1039759166666685 5.999977463800118
    vertex -27.680824549458528 -2.096024083333335 5.999977463800118
  endloop
endfacet
facet normal 0.0 0.0 1.0
  outer loop
    vertex -27.680824549458528 3.1039759166666685 5.999977463800118
    vertex -25.48082454945852 -3.1960240833333327 5.999977463800118
    vertex -25.48082454945852 4.20397591666667 5.999977463800118
  endloop
endfacet
facet normal 0.0 0.0 1.0
  outer loop
    vertex -28.68082454945853 10.3 5.999977463800118
    vertex -27.680824549458528 7.703975916666664 5.999977463800118
    vertex -25.48082454945852 10.3 5.999977463800118
  endloop
endfacet
facet normal 0.0 0.0 1.0
  outer loop
    vertex -27.680824549458528 7.703975916666664 5.999977463800118
    vertex -28.68082454945853 10.3 5.999977463800118
    vertex -27.680824549458528 -6.696024083333332 5.999977463800118
  endloop
endfacet
facet normal 0.0 0.0 1.0
  outer loop
    vertex -27.680824549458528 7.703975916666664 5.999977463800118
    vertex -27.680824549458528 -6.696024083333332 5.999977463800118
    vertex -27.680824549458528 -2.096024083333335 5.999977463800118
  endloop
endfacet
facet normal 0.0 0.0 1.0
  outer loop
    vertex -27.680824549458528 7.703975916666664 5.999977463800118
    vertex -27.680824549458528 -2.096024083333335 5.999977463800118
    vertex -27.680824549458528 3.1039759166666685 5.999977463800118
  endloop
endfacet
facet normal 0.0 0.0 1.0
  outer loop
    vertex -25.48082454945852 10.3 5.999977463800118
    vertex -27.680824549458528 7.703975916666664 5.999977463800118
    vertex -25.48082454945852 6.603975916666666 5.999977463800118
  endloop
endfacet
facet normal -1.0 0.0 0.0
  outer loop
    vertex -28.68082454945853 10.3 5.999977463800118
    vertex -28.68082454945853 -9.3 -5.999977463800117
    vertex -28.68082454945853 -9.3 5.999977463800118
  endloop
endfacet
facet normal -1.0 0.0 0.0
  outer loop
    vertex -28.68082454945853 -9.3 -5.999977463800117
    vertex -28.68082454945853 10.3 5.999977463800118
    vertex -28.68082454945853 10.3 -5.897531929300101
  endloop
endfacet
facet normal 1.0 0.0 0.0
  outer loop
    vertex -25.48082454945852 -9.3 -5.999977463800117
    vertex -25.48082454945852 -5.596024083333329 -0.20002253619988197
    vertex -25.48082454945852 -9.3 5.999977463800118
  endloop
endfacet
facet normal 1.0 0.0 0.0
  outer loop
    vertex -25.48082454945852 -5.596024083333329 -0.20002253619988197
    vertex -25.48082454945852 -9.3 -5.999977463800117
    vertex -25.48082454945852 10.3 -5.897531929300101
  endloop
endfacet
facet normal 1.0 0.0 0.0
  outer loop
    vertex -25.48082454945852 -5.596024083333329 -0.20002253619988197
    vertex -25.48082454945852 10.3 -5.897531929300101
    vertex -25.48082454945852 -3.1960240833333327 -0.20002253619988197
  endloop
endfacet
facet normal 1.0 0.0 0.0
  outer loop
    vertex -25.48082454945852 -3.1960240833333327 -0.20002253619988197
    vertex -25.48082454945852 10.3 -5.897531929300101
    vertex -25.48082454945852 -3.1960240833333327 5.999977463800118
  endloop
endfacet
facet normal 1.0 0.0 0.0
  outer loop
    vertex -25.48082454945852 -3.1960240833333327 5.999977463800118
    vertex -25.48082454945852 10.3 -5.897531929300101
    vertex -25.48082454945852 4.20397591666667 -0.20002253619988197
  endloop
endfacet
facet normal 1.0 0.0 0.0
  outer loop
    vertex -25.48082454945852 4.20397591666667 -0.20002253619988197
    vertex -25.48082454945852 10.3 -5.897531929300101
    vertex -25.48082454945852 6.603975916666666 -0.20002253619988197
  endloop
endfacet
facet normal 1.0 0.0 0.0
  outer loop
    vertex -25.48082454945852 6.603975916666666 -0.20002253619988197
    vertex -25.48082454945852 10.3 -5.897531929300101
    vertex -25.48082454945852 6.603975916666666 5.999977463800118
  endloop
endfacet
facet normal 1.0 0.0 0.0
  outer loop
    vertex -25.48082454945852 6.603975916666666 5.999977463800118
    vertex -25.48082454945852 10.3 -5.897531929300101
    vertex -25.48082454945852 10.3 5.999977463800118
  endloop
endfacet
facet normal 1.0 0.0 0.0
  outer loop
    vertex -25.48082454945852 4.20397591666667 5.999977463800118
    vertex -25.48082454945852 -3.1960240833333327 5.999977463800118
    vertex -25.48082454945852 4.20397591666667 -0.20002253619988197
  endloop
endfacet
facet normal 1.0 0.0 0.0
  outer loop
    vertex -25.48082454945852 -5.596024083333329 5.999977463800118
    vertex -25.48082454945852 -9.3 5.999977463800118
    vertex -25.48082454945852 -5.596024083333329 -0.20002253619988197
  endloop
endfacet
facet normal 1.2262930061463642e-16 8.684784759567384e-33 1.0
  outer loop
    vertex -25.48082454945852 -5.596024083333329 -0.20002253619988197
    vertex -27.680824549458528 -2.096024083333335 -0.20002253619988197
    vertex -27.680824549458528 -6.696024083333334 -0.20002253619988197
  endloop
endfacet
facet normal 1.2262930061463642e-16 8.684784759567384e-33 1.0
  outer loop
    vertex -27.680824549458528 -2.096024083333335 -0.20002253619988197
    vertex -25.48082454945852 -5.596024083333329 -0.20002253619988197
    vertex -25.48082454945852 -3.1960240833333327 -0.20002253619988197
  endloop
endfacet
facet normal 0.0 -1.0 0.0
  outer loop
    vertex -25.48082454945852 -9.3 5.999977463800118
    vertex -28.68082454945853 -9.3 -5.999977463800117
    vertex -25.48082454945852 -9.3 -5.999977463800117
  endloop
endfacet
facet normal 0.0 -1.0 0.0
  outer loop
    vertex -28.68082454945853 -9.3 -5.999977463800117
    vertex -25.48082454945852 -9.3 5.999977463800118
    vertex -28.68082454945853 -9.3 5.999977463800118
  endloop
endfacet
facet normal -0.44721359549995615 -0.8944271909999169 3.526398781992708e-18
  outer loop
    vertex -25.48082454945852 -3.1960240833333327 5.999977463800118
    vertex -27.680824549458528 -2.096024083333335 -0.20002253619988197
    vertex -25.48082454945852 -3.1960240833333327 -0.20002253619988197
  endloop
endfacet
facet normal -0.44721359549995615 -0.8944271909999169 3.526398781992708e-18
  outer loop
    vertex -27.680824549458528 -2.096024083333335 -0.20002253619988197
    vertex -25.48082454945852 -3.1960240833333327 5.999977463800118
    vertex -27.680824549458528 -2.096024083333335 5.999977463800118
  endloop
endfacet
endsolid compound-joint-with-dovetail-ex-1
